<svg xmlns="http://www.w3.org/2000/svg" height="1024" preserveAspectRatio="xMidYMid meet" style="display: block;" version="1.1" viewBox="-236 -456 2552 2552" width="1024">
<path d="M 370 150 L 1710 150 L 1710 1490 L 370 1490 z" fill="rgb(255,255,255)"></path>
<path d="M 681.545 819.281 C 694.228 736.673 710.373 652.06 726.738 570.092 C 732.991 538.768 771.022 510.582 799.955 536.687 C 823.489 557.921 842.408 585.135 863.108 609.18 C 887.802 639.42 913.57 669.207 937.381 699.976 C 1020.83 683.456 1071.09 681.158 1154.95 702.611 L 1243.37 591.671 C 1258.35 572.828 1272.99 553.2 1289.63 535.804 C 1311.89 512.017 1345.31 544.374 1352.87 566.566 C 1362.59 595.115 1365.51 629.31 1370.52 659.31 C 1379.21 711.337 1388.96 763.709 1396.35 815.908 L 1397.67 814.98 C 1401.6 794.417 1409.7 779.563 1427.57 766.851 C 1465.4 739.948 1529.44 760.182 1534.53 809.638 C 1536.38 827.636 1535.2 851.719 1535.2 870.492 L 1535.25 987.668 L 1535.43 1089.7 C 1535.45 1125.52 1540.34 1160.97 1503.7 1182.36 C 1485.78 1192.82 1466.03 1194.75 1445.93 1189.38 C 1429.07 1184.91 1414.75 1173.79 1406.22 1158.58 C 1400.44 1148.26 1399.58 1141.37 1397.16 1130.24 C 1378.35 1154.79 1356.13 1176.53 1331.17 1194.79 C 1256.92 1248.82 1147.93 1270.1 1072.16 1207.14 C 1057.42 1194.9 1048.31 1182.36 1037.36 1166.99 C 1028.33 1178.66 1018.88 1190.2 1007.44 1199.57 C 903.018 1285.08 755.017 1214.62 680.441 1124.94 C 678.238 1138.06 675.747 1148.99 668.864 1160.72 C 660.437 1175.36 646.388 1185.91 629.982 1189.93 C 612.884 1194.06 594.852 1191.43 579.647 1182.58 C 556.576 1168.89 546.288 1148.51 546.487 1122.32 C 546.617 1105.19 546.107 1087.69 546.06 1070.51 L 545.916 948.71 L 545.898 859.795 C 545.907 845.349 545.297 822.187 546.673 808.492 C 547.731 798.762 551.16 789.44 556.66 781.344 C 586.792 737.184 660.284 745.543 676.261 798.064 C 678.168 804.334 679.214 812.891 680.465 819.526 L 681.545 819.281 z" fill="rgb(0,0,0)"></path>
<path d="M 985.641 1066.62 C 1036.37 1016.82 1059.9 980.227 1055.77 906.648 C 1054.72 888.112 1053.79 858.844 1055.83 841.025 C 1059.63 807.943 1076.86 772.17 1104.06 751.946 C 1122.31 738.373 1150.35 725.307 1173.92 728.396 C 1184.61 729.796 1201.76 736.84 1212.02 741.218 C 1286.08 772.807 1350.99 833.556 1397.43 898.265 C 1398.89 909.79 1398.09 956.065 1398.11 969.771 L 1398.1 1045.52 C 1398.08 1055.23 1398.66 1080.94 1396.65 1088.75 C 1392.28 1097.43 1382.33 1110.99 1376.32 1118.62 C 1343.58 1160.22 1297.76 1195.05 1247.08 1211.34 C 1204.93 1224.89 1157.79 1229.04 1117.16 1208.48 C 1080.7 1190.04 1061.42 1169.52 1048.65 1130.61 C 1069.07 1111.87 1092.44 1086.58 1111.83 1066.39 C 1073.63 1067.75 1024.1 1067.27 985.641 1066.62 z" fill="rgb(255,255,255)"></path>
<path d="M 1227.17 933.336 C 1261.3 928.47 1296.45 943.821 1320.9 966.913 C 1327.46 972.658 1350.35 995.427 1339.34 1004.23 C 1327.48 1013.72 1319.5 999.537 1314.4 993.787 C 1297.7 974.965 1277.75 962.117 1253.04 957.239 C 1219.1 952.906 1189.93 963.916 1167.16 989.481 C 1160.03 997.477 1154.44 1011.12 1141.13 1005.92 C 1133.62 999.141 1138.21 988.184 1143.44 981.481 C 1164.15 955.293 1194.12 938.058 1227.17 933.336 z" fill="rgb(0,0,0)"></path>
<path d="M 1396.35 815.908 L 1397.67 814.98 C 1401.6 794.417 1409.7 779.563 1427.57 766.851 C 1465.4 739.948 1529.44 760.182 1534.53 809.638 C 1536.38 827.636 1535.2 851.719 1535.2 870.492 L 1535.25 987.668 L 1535.43 1089.7 C 1535.45 1125.52 1540.34 1160.97 1503.7 1182.36 C 1485.78 1192.82 1466.03 1194.75 1445.93 1189.38 C 1429.07 1184.91 1414.75 1173.79 1406.22 1158.58 C 1400.44 1148.26 1399.58 1141.37 1397.16 1130.24 C 1397.79 1122.13 1398.07 1096.17 1396.65 1088.75 C 1398.66 1080.94 1398.08 1055.23 1398.1 1045.52 L 1398.11 969.771 C 1398.09 956.065 1398.89 909.79 1397.43 898.265 C 1399.42 887.77 1397.84 827.346 1396.35 815.908 z" fill="#6C63FF"></path>
<path d="M 680.441 1124.94 C 678.238 1138.06 675.747 1148.99 668.864 1160.72 C 660.437 1175.36 646.388 1185.91 629.982 1189.93 C 612.884 1194.06 594.852 1191.43 579.647 1182.58 C 556.576 1168.89 546.288 1148.51 546.487 1122.32 C 546.617 1105.19 546.107 1087.69 546.06 1070.51 L 545.916 948.71 L 545.898 859.795 C 545.907 845.349 545.297 822.187 546.673 808.492 C 547.731 798.762 551.16 789.44 556.66 781.344 C 586.792 737.184 660.284 745.543 676.261 798.064 C 678.168 804.334 679.214 812.891 680.465 819.526 L 681.545 819.281 C 679.653 833.955 680.154 850.566 680.171 865.496 L 680.264 926.378 L 680.441 1124.94 z" fill="#6C63FF"></path>
<path d="M 771.29 550.98 C 778.524 550.644 783.574 551.677 788.778 557.032 C 805.748 574.494 821.05 594.538 836.332 613.482 L 914.031 709.133 C 901.141 715.327 884.441 721.234 870.791 727.399 C 832.152 744.472 796.161 766.998 763.917 794.289 C 737.847 817.04 715.615 839.81 696.031 868.62 C 701.973 822.568 714.243 768.549 722.36 721.691 C 727.705 690.1 733.237 658.54 738.956 627.015 C 743.844 600.297 744.851 564.374 771.29 550.98 z" fill="rgb(255,255,255)"></path>
<path d="M 850.685 933.432 C 853.798 933.227 856.919 933.181 860.036 933.295 C 895.097 934.497 921.852 950.937 945.625 976.2 C 954.137 985.245 960.836 1002.59 940.649 1003.26 C 933.412 1003.5 928.4 992.991 923.852 987.963 C 907.937 970.371 888.207 960.576 864.709 957.881 C 834.336 957.116 808.803 965.541 788.575 989.014 C 782.451 996.121 777.404 1011.24 763.426 1002.65 C 752.472 995.923 762.547 983.326 768.45 976.484 C 790.582 950.826 816.824 936.166 850.685 933.432 z" fill="rgb(255,255,255)"></path>
<path d="M 1026.07 241.465 C 1067.6 240.577 1109.11 243.797 1150 251.08 C 1222.06 264.078 1290.67 291.767 1351.57 332.424 C 1383.04 353.651 1423.16 383.987 1414.83 426.787 C 1517.6 521.527 1573.17 671.106 1555.56 809.852 C 1545.53 794.178 1524.51 776.151 1509.34 765.469 C 1509.47 752.307 1509.49 739.531 1508.63 726.369 C 1502.36 631.334 1452.76 524.756 1380.21 462.158 C 1326.21 467.287 1314.4 441.779 1273.63 414.116 C 1210.73 371.442 1142.74 349.761 1067.25 343.139 C 972.755 338.361 875.309 361.217 800.178 420.73 C 765.979 447.819 753.53 465.188 706.356 461.919 C 702.004 465.37 698.048 468.661 694.062 472.66 C 635.576 531.34 597.765 604.286 582.307 685.517 C 577.179 712.468 576.595 734.299 576.306 761.259 C 560.767 771.491 540.034 788.93 530.53 805.006 C 527.446 789.846 527.09 770.474 527.052 754.78 C 527.599 651.791 563.5 552.114 628.747 472.429 C 641.904 456.089 655.275 442.443 670.037 427.581 C 666.793 405.204 670.972 388.429 687.034 372.254 C 774.887 283.782 904.372 245.552 1026.07 241.465 z" fill="rgb(0,0,0)"></path>
<path d="M 533.787 819.896 L 535.772 820.596 C 536.542 824.887 536.247 841.406 536.264 847.166 L 536.424 903.938 C 536.746 981.03 536.631 1058.12 536.079 1135.21 C 511.201 1122.16 500.421 1115.08 480.667 1095.21 C 467.608 1081.12 456.947 1064.99 449.111 1047.45 C 430.659 1005.12 429.772 957.198 446.646 914.216 C 461.867 874.861 494.936 836.872 533.787 819.896 z" fill="#8B85FF"></path>
<path d="M 1547.3 818.221 C 1559.2 822.722 1580.22 838.228 1589.75 846.677 C 1622.63 875.839 1644.44 917.71 1647.53 961.661 C 1651.07 1011.91 1637.99 1053.75 1605.29 1091.96 C 1589.21 1109.47 1569.34 1125.16 1547.78 1135.29 L 1547.3 818.221 z" fill="#8B85FF"></path>
</svg>